{"title":"Nat Geo Wolves A Legend Returns To Yellowstone 2007 RLG","uid":12739057,"size":3989864523,"categoryP":"video","categoryS":"movies_dvdr","magnet":"?xt=urn:btih:2d4ae6689651f518278765d9e3574d26270ef32f&amp;dn=Nat+Geo+Wolves+A+Legend+Returns+To+Yellowstone+2007+RLG&amp;tr=udp%3A%2F%2Ftracker.leechers-paradise.org%3A6969&amp;tr=udp%3A%2F%2Fzer0day.ch%3A1337&amp;tr=udp%3A%2F%2Fopen.demonii.com%3A1337&amp;tr=udp%3A%2F%2Ftracker.coppersurfer.tk%3A6969&amp;tr=udp%3A%2F%2Fexodus.desync.com%3A6969","seeders":0,"leechers":1,"uploader":"RedLegsGreaves","files":24,"time":1447217045,"description":"[img]http://extraimago.com/images/2015/11/11/WolvesALegendReturnstoYellowstoneDVD.jpg[/img]\r\n\r\nThis classic, beloved National Geographic special was four years in the making and this amazing film invites you to run with the pack for a wolf's-eye-view. Witness the unfolding saga of hardships and affection, losses and triumphs, and the controversy surrounding the decision to reintroduce wolves back into the heart of the West.\r\n\r\nBonus feature: wolves photo gallery.\r\n\r\n[color=red][b]For Newer Users.\r\nSimply Drag downloaded folder to your Media Player. This is a PAL DVD.\r\nThis is ripped so you would have best quality, menu, bonus/special feature, language options etc.\r\nNote DVDs may not have have all* features.[/b][/color]\r\n\r\n[img]http://extraimago.com/images/2015/11/11/dvd_snapshot_00.00_2015.11.10_20.30.38.jpg[/img]\r\n\r\n[img]http://extraimago.com/images/2015/11/11/dvd_snapshot_16.44_2015.11.10_20.34.22.jpg[/img]\r\n\r\nVideo\r\nID                          : 224 (0xE0)\r\nFormat                      : MPEG Video\r\nFormat version              : Version 2\r\nFormat profile              :   \r\nFormat settings, BVOP       : Yes\r\nFormat settings, Matrix     : Default\r\nFormat settings, GOP        : M=3, N=13\r\nFormat settings, picture st : Frame\r\nDuration                    : 2mn 20s\r\nBit rate mode               : Variable\r\nBit rate                    : 7 384 Kbps\r\nMaximum bit rate            : 9 600 Kbps\r\nWidth                       : 720 pixels\r\nHeight                      : 480 pixels\r\nDisplay aspect ratio        : 4:3\r\nFrame rate                  : 29.970 fps\r\nStandard                    : NTSC\r\nColor space                 : YUV\r\nChroma subsampling          : 4:2:0\r\nBit depth                   : 8 bits\r\nScan type                   : Interlaced\r\nScan order                  : Top Field First\r\nCompression mode            : Lossy\r\nBits/(Pixel*Frame)          : 0.713\r\nTime code of first frame    : 01:57:06;18\r\nTime code source            : Group of pictures header\r\nGOP, Open/Closed            : Open\r\nStream size                 : 124 MiB (95%)\r\nColor primaries             : BT.601 NTSC\r\nTransfer characteristics    : BT.601\r\nMatrix coefficients         : BT.601\r\n\r\nAudio\r\nID                          : 189 (0xBD)-128 (0x80)\r\nFormat                      : AC-3\r\nFormat/Info                 : Audio Coding 3\r\nMode extension              : CM (complete main)\r\nFormat settings, Endianness : Big\r\nMuxing mode                 : DVD-Video\r\nDuration                    : 2mn 20s\r\nBit rate mode               : Constant\r\nBit rate                    : 192 Kbps\r\nChannel(s)                  : 2 channels\r\nChannel positions           : Front: L R\r\nSampling rate               : 48.0 KHz\r\nCompression mode            : Lossy\r\nDelay relative to video     : -382ms\r\nStream size                 : 3.22 MiB (2%)\r\n\r\n[img]http://i.imgur.com/fLhfPWl.jpg[/img]","torrent":{"xt":"urn:btih:2d4ae6689651f518278765d9e3574d26270ef32f","amp;dn":"Nat+Geo+Wolves+A+Legend+Returns+To+Yellowstone+2007+RLG","amp;tr":["udp%3A%2F%2Ftracker.leechers-paradise.org%3A6969","udp%3A%2F%2Fzer0day.ch%3A1337","udp%3A%2F%2Fopen.demonii.com%3A1337","udp%3A%2F%2Ftracker.coppersurfer.tk%3A6969","udp%3A%2F%2Fexodus.desync.com%3A6969"],"infoHash":"2d4ae6689651f518278765d9e3574d26270ef32f","infoHashBuffer":{"type":"Buffer","data":[45,74,230,104,150,81,245,24,39,135,101,217,227,87,77,38,39,14,243,47]},"announce":[],"urlList":[]}}